<svg width="20" height="20" viewBox="0 0 20 20" fill="none" xmlns="http://www.w3.org/2000/svg">
<g clip-path="url(#clip0_6009_1289)">
<path d="M18.0803 0.422119C18.0803 5.88212 13.0003 7.74812 13.0003 7.74812L12.1883 12.2001C12.1332 12.3539 12.1009 12.515 12.0923 12.6781C12.106 13.0374 12.2583 13.3774 12.5173 13.6267C12.7763 13.8761 13.1218 14.0154 13.4813 14.0154C13.8408 14.0154 14.1864 13.8761 14.4454 13.6267C14.7044 13.3774 14.8567 13.0374 14.8703 12.6781C14.8736 12.3533 14.7588 12.0384 14.5473 11.7919C14.3357 11.5454 14.0418 11.3842 13.7203 11.3381C15.0623 9.03812 16.9783 10.1381 16.9783 10.1381C17.2643 9.85012 17.5043 9.56212 17.7443 9.32412L16.3063 8.74812H18.1743C18.6789 8.06656 19.0675 7.30633 19.3243 6.49812L17.4003 5.73812H19.4603C19.6254 4.8049 19.5877 3.84707 19.3495 2.92976C19.1114 2.01245 18.6785 1.15718 18.0803 0.422119ZM7.06432 7.74812C7.06432 7.74812 1.98631 5.88212 1.98631 0.422119C1.98631 0.422119 0.0223149 2.57612 0.502315 5.64212H2.56232L0.646315 6.40012C0.84577 7.02376 1.11904 7.62133 1.46031 8.18012H3.66031L1.93831 8.89812C2.24856 9.33242 2.60167 9.73444 2.99231 10.0981C2.99231 10.0981 4.90831 8.99612 6.25031 11.2981C5.92878 11.3442 5.63492 11.5054 5.42338 11.7519C5.21184 11.9984 5.09704 12.3133 5.10031 12.6381C5.09533 12.8441 5.13619 13.0486 5.21994 13.2368C5.30369 13.4251 5.42824 13.5923 5.58458 13.7265C5.74091 13.8607 5.92512 13.9585 6.12388 14.0127C6.32264 14.067 6.53097 14.0764 6.7338 14.0402C6.93663 14.0041 7.12889 13.9233 7.29666 13.8037C7.46444 13.6841 7.60353 13.5287 7.70388 13.3488C7.80423 13.1689 7.86333 12.9689 7.87689 12.7633C7.89046 12.5577 7.85815 12.3517 7.78232 12.1601L7.06432 7.74812ZM9.02832 4.54012L9.55432 3.20012H10.5123L11.0383 4.58812L10.0383 7.36612L9.02832 4.54012ZM8.82832 1.34012L7.42832 4.54012L9.45832 9.61612V14.3581L8.45832 17.5581L9.45832 19.5581H10.6003L11.6003 17.5581L10.6003 14.3581V9.61612L12.6203 4.54012L11.2203 1.34012H8.82832Z" fill="#D0A85C"/>
</g>
<defs>
<clipPath id="clip0_6009_1289">
<rect width="20" height="20" fill="white"/>
</clipPath>
</defs>
</svg>
