<svg width="42" height="42" viewBox="0 0 42 42" fill="none" xmlns="http://www.w3.org/2000/svg">
<g style="mix-blend-mode:luminosity" clip-path="url(#clip0_6009_1382)">
<path d="M28.4928 23.667V25.977C32.1132 22.3566 34.5282 25.977 34.5282 25.977C47.0988 17.1276 37.947 0.839966 37.947 0.839966C37.947 0.839966 37.6446 8.08077 31.6134 12.5034V19.4418C31.5126 21.4536 30.0006 22.7598 28.4928 23.667ZM7.47181 26.0778C7.47181 26.0778 9.18121 23.3646 11.9994 24.9732L8.78221 20.244L11.5962 13.524C4.35541 9.09717 4.03621 0.953366 4.03621 0.953366C4.03621 0.953366 -5.09879 17.22 7.47181 26.0778ZM11.2938 35.2338L13.608 27.3882L13.5072 27.1866L8.07661 32.718C6.76808 34.0446 5.01085 34.8341 3.15001 34.9314H1.26001L0.84001 35.9352L5.88001 40.7652L11.2938 35.2338ZM38.7534 35.2338C37.8241 35.2202 36.9073 35.0169 36.0594 34.6363C35.2115 34.2557 34.4503 33.7058 33.8226 33.0204L28.896 28.0896L30.5046 35.532L36.036 41.16L41.076 36.3342L40.656 35.3262L38.7534 35.2338ZM23.4654 17.934C23.4654 18.0348 23.3646 18.1356 23.3646 18.2322H23.667C26.082 18.4338 26.8842 19.341 27.489 21.4536C27.8657 21.2418 28.2049 20.9694 28.4928 20.6472C28.9128 20.2272 29.1984 19.9458 29.1984 19.5426V11.7978C29.1931 11.6022 29.1197 11.4147 28.9909 11.2675C28.8621 11.1202 28.6859 11.0226 28.4928 10.9914L15.3174 8.58057H15.12C14.8538 8.58057 14.5985 8.68632 14.4102 8.87457C14.222 9.06282 14.1162 9.31814 14.1162 9.58437V12.4026L24.5742 13.8096L23.4654 17.934Z" fill="#D0A85C"/>
<path d="M25.2756 22.68C24.7716 20.4666 24.6708 20.769 22.8606 20.6682L17.1276 20.16V18.5346H19.4418C19.834 18.5437 20.2175 18.4182 20.5285 18.179C20.8395 17.9398 21.0592 17.6014 21.1512 17.22L21.5712 15.813L13.608 14.7L11.508 19.8324L16.4388 26.9724L14.112 34.7298L20.9496 41.16L27.8922 34.8306C27.8922 34.8306 25.2756 22.8606 25.2756 22.6506M20.9496 0.936646L18.9378 5.25845L20.9496 6.86705L22.9614 5.25845L20.9496 0.936646ZM26.082 3.95225L26.6826 6.47225H29.2026L30.408 1.85225L26.082 3.95225ZM12.705 6.46805H15.225L15.3258 6.16565L15.8298 3.95225L11.5038 1.85225L12.705 6.46805Z" fill="#D0A85C"/>
</g>
<defs>
<clipPath id="clip0_6009_1382">
<rect width="42" height="42" fill="white"/>
</clipPath>
</defs>
</svg>
