<svg width="20" height="20" viewBox="0 0 20 20" fill="none" xmlns="http://www.w3.org/2000/svg">
<g clip-path="url(#clip0_6009_1283)">
<path d="M16.8959 15.46H19.5779L18.8119 12.874H16.8959C15.8537 12.8746 14.8236 13.0969 13.8739 13.5262C12.9242 13.9556 12.0768 14.582 11.3879 15.364L9.99988 17L8.61188 15.372C7.92368 14.5886 7.07657 13.9606 6.12688 13.5299C5.17718 13.0992 4.14667 12.8756 3.10388 12.874H1.18788L0.421875 15.46H3.10388C4.14606 15.4606 5.1762 15.6829 6.12585 16.1122C7.07551 16.5416 7.92295 17.168 8.61188 17.95L8.75388 18.094H6.93387V19.578H13.1139V18.094H11.2939L11.4359 17.95C12.1121 17.1652 12.9503 16.5362 13.8928 16.1063C14.8354 15.6765 15.8599 15.456 16.8959 15.46Z" fill="#D0A85C"/>
<path d="M11.246 10.8619L10 12.4419L8.754 10.8619C8.60783 10.6801 8.52421 10.456 8.51556 10.2228C8.50691 9.98972 8.5737 9.76002 8.706 9.56788L10 7.46188L11.294 9.56788C11.4263 9.76002 11.4931 9.98972 11.4844 10.2228C11.4758 10.456 11.3922 10.6801 11.246 10.8619ZM8.516 5.78588L6.934 8.32388C6.65092 8.7828 6.51319 9.31658 6.53889 9.85517C6.56459 10.3938 6.75251 10.912 7.078 11.3419L10 15.0279L12.922 11.3419C13.2574 10.9165 13.4516 10.397 13.4774 9.85595C13.5032 9.31487 13.3594 8.77925 13.066 8.32388L10 3.39988L9.904 3.54388C9.7927 3.65827 9.65816 3.74745 9.50946 3.80542C9.36076 3.86338 9.20135 3.88877 9.042 3.87988C8.228 3.87988 7.606 2.15588 9.952 0.431885C9.952 0.431885 4.204 1.53188 6.982 6.51388L8.516 5.78588Z" fill="#D0A85C"/>
</g>
<defs>
<clipPath id="clip0_6009_1283">
<rect width="20" height="20" fill="white"/>
</clipPath>
</defs>
</svg>
