<svg width="42" height="42" viewBox="0 0 42 42" fill="none" xmlns="http://www.w3.org/2000/svg">
<g style="mix-blend-mode:luminosity" clip-path="url(#clip0_6009_1385)">
<path d="M35.4816 32.466H41.1138L39.5052 27.0354H35.4816C33.293 27.0366 31.1297 27.5035 29.1354 28.4051C27.1412 29.3066 25.3615 30.6222 23.9148 32.2644L21 35.7L18.0852 32.2812C16.64 30.6359 14.8611 29.3172 12.8667 28.4127C10.8723 27.5082 8.70827 27.0387 6.5184 27.0354H2.4948L0.8862 32.466H6.5184C8.70699 32.4672 10.8703 32.9341 12.8646 33.8357C14.8588 34.7372 16.6385 36.0528 18.0852 37.695L18.3834 37.9974H14.5614V41.1138H27.5394V37.9974H23.7174L24.0156 37.695C25.4356 36.0468 27.1958 34.7259 29.1752 33.8232C31.1546 32.9206 33.3061 32.4575 35.4816 32.466Z" fill="#D0A85C"/>
<path d="M23.6166 22.8102L21 26.1282L18.3834 22.8102C18.0764 22.4284 17.9008 21.9578 17.8827 21.4682C17.8645 20.9787 18.0047 20.4963 18.2826 20.0928L21 15.6702L23.7174 20.0928C23.9952 20.4963 24.1355 20.9787 24.1173 21.4682C24.0992 21.9578 23.9235 22.4284 23.6166 22.8102ZM17.8836 12.1506L14.5614 17.4804C13.9669 18.4442 13.6777 19.5651 13.7317 20.6961C13.7856 21.8272 14.1803 22.9155 14.8638 23.8182L21 31.5588L27.1362 23.8182C27.8405 22.925 28.2483 21.834 28.3025 20.6978C28.3567 19.5615 28.0547 18.4367 27.4386 17.4804L21 7.14003L20.7984 7.44243C20.5647 7.68264 20.2821 7.86992 19.9698 7.99164C19.6576 8.11336 19.3228 8.16669 18.9882 8.14803C17.2788 8.14803 15.9726 4.52763 20.8992 0.907227C20.8992 0.907227 8.82839 3.21723 14.6622 13.6794L17.8836 12.1506Z" fill="#D0A85C"/>
</g>
<defs>
<clipPath id="clip0_6009_1385">
<rect width="42" height="42" fill="white"/>
</clipPath>
</defs>
</svg>
