<svg width="42" height="42" viewBox="0 0 42 42" fill="none" xmlns="http://www.w3.org/2000/svg">
<g style="mix-blend-mode:luminosity" clip-path="url(#clip0_6009_1391)">
<path d="M37.968 0.88623C37.968 12.3522 27.3 16.2708 27.3 16.2708L25.5948 25.62C25.4791 25.943 25.4112 26.2812 25.3932 26.6238C25.4218 27.3783 25.7417 28.0923 26.2856 28.6159C26.8295 29.1396 27.5551 29.4321 28.3101 29.4321C29.0651 29.4321 29.7907 29.1396 30.3346 28.6159C30.8785 28.0923 31.1984 27.3783 31.227 26.6238C31.2339 25.9418 30.9928 25.2804 30.5486 24.7628C30.1043 24.2452 29.4872 23.9065 28.812 23.8098C31.6302 18.9798 35.6538 21.2898 35.6538 21.2898C36.2544 20.685 36.7584 20.0802 37.2624 19.5804L34.2426 18.3708H38.1654C39.2251 16.9396 40.0411 15.3431 40.5804 13.6458L36.54 12.0498H40.866C41.2128 10.0901 41.1334 8.07862 40.6334 6.15227C40.1333 4.22592 39.2242 2.42985 37.968 0.88623ZM14.8344 16.2708C14.8344 16.2708 4.17061 12.3522 4.17061 0.88623C4.17061 0.88623 0.0462082 5.40963 1.05421 11.8482H5.38021L1.35661 13.44C1.77546 14.7497 2.34933 16.0046 3.06601 17.178H7.68601L4.06981 18.6858C4.72132 19.5979 5.46285 20.4421 6.28321 21.2058C6.28321 21.2058 10.3068 18.8916 13.125 23.7258C12.4498 23.8225 11.8327 24.1612 11.3884 24.6788C10.9442 25.1964 10.7031 25.8578 10.71 26.5398C10.6995 26.9724 10.7853 27.4018 10.9612 27.7971C11.1371 28.1924 11.3987 28.5437 11.727 28.8254C12.0553 29.1072 12.4421 29.3125 12.8595 29.4265C13.2769 29.5404 13.7144 29.5601 14.1403 29.4842C14.5663 29.4083 14.97 29.2386 15.3223 28.9875C15.6747 28.7364 15.9668 28.4101 16.1775 28.0323C16.3882 27.6544 16.5123 27.2344 16.5408 26.8027C16.5693 26.371 16.5015 25.9383 16.3422 25.536L14.8344 16.2708ZM18.9588 9.53403L20.0634 6.72003H22.0752L23.1798 9.63483L21.0798 15.4686L18.9588 9.53403ZM18.5388 2.81403L15.5988 9.53403L19.8618 20.1936V30.1518L17.7618 36.8718L19.8618 41.0718H22.26L24.36 36.8718L22.26 30.1518V20.1936L26.502 9.53403L23.562 2.81403H18.5388Z" fill="#D0A85C"/>
</g>
<defs>
<clipPath id="clip0_6009_1391">
<rect width="42" height="42" fill="white"/>
</clipPath>
</defs>
</svg>
