<svg width="20" height="20" viewBox="0 0 20 20" fill="none" xmlns="http://www.w3.org/2000/svg">
<g clip-path="url(#clip0_6009_1291)">
<path d="M17.1839 12.778L10.9999 18V13.496H12.4839V11.676H7.50987V13.496H8.99988V18.046L2.81588 12.778L1.66588 4.20001L7.17387 2.09801C8.99209 1.39394 11.0077 1.39394 12.8259 2.09801L18.3339 4.20001L17.1839 12.778ZM13.2559 1.00001C11.1527 0.234697 8.84708 0.234697 6.74388 1.00001L0.421875 3.43801L1.76188 13.352L8.37188 19C8.8328 19.3726 9.40719 19.5765 9.99988 19.578C10.594 19.5849 11.1711 19.38 11.6279 19L18.2379 13.352L19.5779 3.43801L13.2559 1.00001Z" fill="#D0A85C"/>
<path d="M15.7484 6.45594L12.4004 4.25194V5.30594H7.60039V4.25194L4.34839 5.68994C4.23203 5.74241 4.13623 5.83181 4.07585 5.94427C4.01546 6.05672 3.99386 6.18596 4.01439 6.31194L4.87639 10.1439C4.9071 10.2455 4.96242 10.3379 5.03744 10.4129C5.11245 10.4879 5.20484 10.5432 5.30639 10.5739L7.55839 11.0539V9.99994H12.3464V11.0539L14.6464 10.5739C14.7551 10.5589 14.8559 10.5087 14.9335 10.4311C15.0112 10.3535 15.0613 10.2527 15.0764 10.1439L15.9384 7.02994C15.9768 6.92591 15.9779 6.81177 15.9414 6.70705C15.9049 6.60234 15.8331 6.51356 15.7384 6.45594M11.4844 4.01394H8.51639L10.0004 2.33594L11.4844 4.01394Z" fill="#D0A85C"/>
</g>
<defs>
<clipPath id="clip0_6009_1291">
<rect width="20" height="20" fill="white"/>
</clipPath>
</defs>
</svg>
