<svg width="42" height="42" viewBox="0 0 42 42" fill="none" xmlns="http://www.w3.org/2000/svg">
<g style="mix-blend-mode:luminosity" clip-path="url(#clip0_6009_1393)">
<path d="M36.0864 26.8338L23.1 37.8V28.3416H26.2164V24.5196H15.771V28.3416H18.9V37.8966L5.9136 26.8338L3.4986 8.82003L15.0654 4.40582C18.8837 2.92727 23.1163 2.92727 26.9346 4.40582L38.5014 8.82003L36.0864 26.8338ZM27.8376 2.10002C23.4209 0.492863 18.5791 0.492863 14.1624 2.10002L0.8862 7.21983L3.7002 28.0392L17.5812 39.9C18.5491 40.6825 19.7554 41.1107 21 41.1138C22.2476 41.1283 23.4596 40.698 24.4188 39.9L38.2998 28.0392L41.1138 7.21983L27.8376 2.10002Z" fill="#D0A85C"/>
<path d="M33.0708 13.5576L26.04 8.92924V11.1426H15.96V8.92924L9.1308 11.949C8.88645 12.0592 8.68528 12.247 8.55847 12.4831C8.43166 12.7193 8.38629 12.9907 8.4294 13.2552L10.2396 21.3024C10.3041 21.5157 10.4203 21.7097 10.5778 21.8672C10.7353 22.0248 10.9294 22.1409 11.1426 22.2054L15.8718 23.2134V21H25.9266V23.2134L30.7566 22.2054C30.9849 22.1738 31.1967 22.0685 31.3596 21.9055C31.5226 21.7425 31.6279 21.5308 31.6596 21.3024L33.4698 14.763C33.5505 14.5446 33.5527 14.3049 33.4761 14.085C33.3995 13.8651 33.2488 13.6787 33.0498 13.5576M24.1164 8.42944H17.8836L21 4.90564L24.1164 8.42944Z" fill="#D0A85C"/>
</g>
<defs>
<clipPath id="clip0_6009_1393">
<rect width="42" height="42" fill="white"/>
</clipPath>
</defs>
</svg>
