<svg width="20" height="20" viewBox="0 0 20 20" fill="none" xmlns="http://www.w3.org/2000/svg">
<g clip-path="url(#clip0_6009_1277)">
<path d="M11.3176 14.742L11.6516 14.166C12.8016 12.298 12.7536 10.966 12.4176 10.048C12.0695 11.2423 11.4461 12.3383 10.5976 13.248C10.5185 13.3161 10.4158 13.3506 10.3116 13.344H9.6396C9.57683 13.3456 9.51445 13.3335 9.45679 13.3087C9.39912 13.2838 9.34754 13.2467 9.3056 13.2C8.4571 12.2903 7.83375 11.1943 7.4856 10C7.1496 10.91 7.1496 12.252 8.2516 14.118L8.5876 14.694L7.9156 15.844L9.9276 19.388L11.9396 15.844L11.3176 14.742Z" fill="#D0A85C"/>
<path d="M14.6223 7.74797C13.9523 6.88597 13.4223 5.74797 13.4223 3.96597C13.4223 3.15197 12.7043 2.33597 11.8903 1.56597C10.9323 0.703969 10.7403 0.417969 9.97429 0.417969C9.20829 0.417969 9.01629 0.703969 8.10629 1.56597C7.29229 2.33197 6.57429 3.14797 6.57429 3.96597C6.57429 5.73797 5.99829 6.88597 5.37429 7.70197L2.55229 10.574L0.446289 9.13797V11.724C0.446289 11.724 0.494289 16.8 7.91629 19.578C7.91629 19.578 5.09029 18.142 4.66029 13.352C4.61229 13.018 4.61229 11.532 4.61229 11.294C5.41169 12.5447 6.32562 13.7184 7.34229 14.8C7.19829 14.56 7.05429 14.272 6.91029 14.034C5.91029 11.926 6.09629 10.394 6.57629 9.33997C6.91034 8.63151 7.42147 8.02119 8.06029 7.56797L9.97629 9.48397L11.8923 7.56797C12.5311 8.02119 13.0422 8.63151 13.3763 9.33997C13.8563 10.394 14.0943 11.926 13.0903 13.986C12.9463 14.262 12.8003 14.502 12.6583 14.8C13.675 13.7184 14.5889 12.5447 15.3883 11.294C15.3883 11.532 15.3883 13.018 15.3403 13.352C14.8623 18.142 12.0843 19.578 12.0843 19.578C19.5063 16.8 19.5543 11.724 19.5543 11.724V9.13797L17.4483 10.574L14.6223 7.74797Z" fill="#D0A85C"/>
</g>
<defs>
<clipPath id="clip0_6009_1277">
<rect width="20" height="20" fill="white"/>
</clipPath>
</defs>
</svg>
