<svg width="42" height="42" viewBox="0 0 42 42" fill="none" xmlns="http://www.w3.org/2000/svg">
<g style="mix-blend-mode:luminosity" clip-path="url(#clip0_6009_1388)">
<path d="M12.0498 11.445H14.9646L15.771 8.53021L10.1388 5.20801L12.0498 11.445ZM29.9502 11.445L31.8612 5.20801L26.229 8.53021L27.0354 11.445H29.9502ZM29.9502 14.8638C29.3496 14.8638 24.822 13.2552 24.822 13.2552L21 17.7828L17.178 13.2552C17.178 13.2552 12.7512 14.8638 12.0498 14.8638C8.8284 14.8638 10.038 11.8482 10.038 11.8482C10.038 11.8482 1.7892 20.2944 0.8862 26.9346C0.8862 26.9346 3.297 23.2134 11.1426 21.4032C12.3409 23.8783 14.422 25.8155 16.9764 26.8338C16.674 25.5276 16.3716 24.0156 16.0734 22.6086C15.4598 22.0774 14.9177 21.469 14.4606 20.7984C14.763 20.7984 17.4804 20.496 17.8836 20.496C18.1818 21.6048 19.7946 32.5668 19.7946 32.5668L16.8546 36.8928V41.0928L21 39.4044L25.1244 41.1138V36.792L22.1844 32.466C22.1844 32.466 23.7972 21.504 24.0954 20.3952C24.3978 20.3952 27.1152 20.6976 27.5184 20.6976C27.0912 21.391 26.5453 22.0037 25.9056 22.5078C25.5309 23.8994 25.2295 25.3098 25.0026 26.733C27.5853 25.7517 29.685 23.8042 30.8574 21.3024C38.703 23.2134 41.1138 26.8338 41.1138 26.8338C40.2108 20.2944 31.962 11.76 31.962 11.76C31.962 11.76 33.1716 14.8764 29.9502 14.8764" fill="#D0A85C"/>
<path d="M21 0.88623L17.7828 9.83643H17.8836L21 13.9608L24.1164 9.83643H24.2172L21 0.88623Z" fill="#D0A85C"/>
</g>
<defs>
<clipPath id="clip0_6009_1388">
<rect width="42" height="42" fill="white"/>
</clipPath>
</defs>
</svg>
