<svg width="42" height="42" viewBox="0 0 42 42" fill="none" xmlns="http://www.w3.org/2000/svg">
<g clip-path="url(#clip0_6009_1379)">
<path d="M23.7678 30.9582L24.4692 29.7486C26.8842 25.8258 26.7834 23.0286 26.0778 21.1008C25.3467 23.6088 24.0376 25.9104 22.2558 27.8208C22.0896 27.9638 21.874 28.0362 21.6552 28.0224H20.244C20.1122 28.0257 19.9812 28.0004 19.8601 27.9482C19.739 27.896 19.6307 27.8181 19.5426 27.72C17.7607 25.8096 16.4517 23.508 15.7206 21C15.015 22.911 15.015 25.7292 17.3292 29.6478L18.0348 30.8574L16.6236 33.2724L20.8488 40.7148L25.074 33.2724L23.7678 30.9582Z" fill="#D0A85C"/>
<path d="M30.7062 16.2708C29.2992 14.4606 28.1862 12.0708 28.1862 8.32861C28.1862 6.61921 26.6784 4.90561 24.969 3.28861C22.9572 1.47841 22.554 0.877808 20.9454 0.877808C19.3368 0.877808 18.9336 1.47841 17.0226 3.28861C15.3132 4.89721 13.8054 6.61081 13.8054 8.32861C13.8054 12.0498 12.5958 14.4606 11.2854 16.1742L5.35922 22.2054L0.936615 19.1898V24.6204C0.936615 24.6204 1.03742 35.28 16.6236 41.1138C16.6236 41.1138 10.689 38.0982 9.78601 28.0392C9.68521 27.3378 9.68521 24.2172 9.68521 23.7174C11.364 26.3439 13.2832 28.8087 15.4182 31.08C15.1158 30.576 14.8134 29.9712 14.511 29.4714C12.411 25.0446 12.8016 21.8274 13.8096 19.614C14.5111 18.1262 15.5845 16.8446 16.926 15.8928L20.9496 19.9164L24.9732 15.8928C26.3147 16.8446 27.3881 18.1262 28.0896 19.614C29.0976 21.8274 29.5974 25.0446 27.489 29.3706C27.1866 29.9502 26.88 30.4542 26.5818 31.08C28.7168 28.8087 30.6361 26.3439 32.3148 23.7174C32.3148 24.2172 32.3148 27.3378 32.214 28.0392C31.2102 38.0982 25.3764 41.1138 25.3764 41.1138C40.9626 35.28 41.0634 24.6204 41.0634 24.6204V19.1898L36.6408 22.2054L30.7062 16.2708Z" fill="#D0A85C"/>
</g>
<defs>
<clipPath id="clip0_6009_1379">
<rect width="42" height="42" fill="white"/>
</clipPath>
</defs>
</svg>
