<svg width="20" height="20" viewBox="0 0 20 20" fill="none" xmlns="http://www.w3.org/2000/svg">
<g clip-path="url(#clip0_6009_1286)">
<path d="M5.73788 5.44998H7.12588L7.50987 4.06198L4.82787 2.47998L5.73788 5.44998ZM14.2619 5.44998L15.1719 2.47998L12.4899 4.06198L12.8739 5.44998H14.2619ZM14.2619 7.07798C13.9759 7.07798 11.8199 6.31198 11.8199 6.31198L9.99988 8.46798L8.17988 6.31198C8.17988 6.31198 6.07188 7.07798 5.73788 7.07798C4.20388 7.07798 4.77987 5.64198 4.77987 5.64198C4.77987 5.64198 0.851875 9.66398 0.421875 12.826C0.421875 12.826 1.56987 11.054 5.30588 10.192C5.87652 11.3706 6.86748 12.2931 8.08387 12.778C7.93987 12.156 7.79588 11.436 7.65388 10.766C7.36171 10.513 7.10355 10.2233 6.88588 9.90398C7.02988 9.90398 8.32388 9.75998 8.51588 9.75998C8.65788 10.288 9.42588 15.508 9.42588 15.508L8.02588 17.568V19.568L9.99988 18.764L11.9639 19.578V17.52L10.5639 15.46C10.5639 15.46 11.3319 10.24 11.4739 9.71198C11.6179 9.71198 12.9119 9.85598 13.1039 9.85598C12.9004 10.1862 12.6405 10.4779 12.3359 10.718C12.1574 11.3807 12.0139 12.0523 11.9059 12.73C13.1357 12.2627 14.1356 11.3353 14.6939 10.144C18.4299 11.054 19.5779 12.778 19.5779 12.778C19.1479 9.66398 15.2199 5.59998 15.2199 5.59998C15.2199 5.59998 15.7959 7.08398 14.2619 7.08398" fill="#D0A85C"/>
<path d="M9.99977 0.422119L8.46777 4.68412H8.51577L9.99977 6.64812L11.4838 4.68412H11.5318L9.99977 0.422119Z" fill="#D0A85C"/>
</g>
<defs>
<clipPath id="clip0_6009_1286">
<rect width="20" height="20" fill="white"/>
</clipPath>
</defs>
</svg>
