<svg width="20" height="20" viewBox="0 0 20 20" fill="none" xmlns="http://www.w3.org/2000/svg">
<g clip-path="url(#clip0_6009_1280)">
<path d="M13.5681 11.2699V12.3699C15.2921 10.6459 16.4421 12.3699 16.4421 12.3699C22.4281 8.1559 18.0701 0.399902 18.0701 0.399902C18.0701 0.399902 17.9261 3.8479 15.0541 5.9539V9.2579C15.0061 10.2159 14.2861 10.8379 13.5681 11.2699ZM3.55809 12.4179C3.55809 12.4179 4.37209 11.1259 5.71409 11.8919L4.18209 9.6399L5.52209 6.4399C2.07409 4.3319 1.92209 0.453902 1.92209 0.453902C1.92209 0.453902 -2.42791 8.1999 3.55809 12.4179ZM5.37809 16.7779L6.48009 13.0419L6.43209 12.9459L3.84609 15.5799C3.22298 16.2116 2.3862 16.5876 1.50009 16.6339H0.600092L0.400092 17.1119L2.80009 19.4119L5.37809 16.7779ZM18.4541 16.7779C18.0116 16.7715 17.575 16.6746 17.1712 16.4934C16.7675 16.3121 16.405 16.0503 16.1061 15.7239L13.7601 13.3759L14.5261 16.9199L17.1601 19.5999L19.5601 17.3019L19.3601 16.8219L18.4541 16.7779ZM11.1741 8.5399C11.1741 8.5879 11.1261 8.6359 11.1261 8.6819H11.2701C12.4201 8.7779 12.8021 9.2099 13.0901 10.2159C13.2695 10.1151 13.431 9.98533 13.5681 9.8319C13.7681 9.6319 13.9041 9.4979 13.9041 9.3059V5.6179C13.9016 5.52479 13.8666 5.43547 13.8053 5.36537C13.7439 5.29527 13.66 5.24877 13.5681 5.2339L7.29409 4.0859H7.20009C7.07332 4.0859 6.95174 4.13626 6.86209 4.22591C6.77245 4.31555 6.72209 4.43713 6.72209 4.5639V5.9059L11.7021 6.5759L11.1741 8.5399Z" fill="#D0A85C"/>
<path d="M12.0355 10.8C11.7955 9.74605 11.7475 9.89004 10.8855 9.84204L8.15554 9.60005V8.82605H9.25754C9.44431 8.83034 9.62692 8.77057 9.77501 8.65669C9.92309 8.5428 10.0277 8.38165 10.0715 8.20005L10.2715 7.53005L6.47954 7.00005L5.47954 9.44405L7.82754 12.844L6.71954 16.538L9.97554 19.6L13.2815 16.586C13.2815 16.586 12.0355 10.886 12.0355 10.786M9.97554 0.446045L9.01754 2.50405L9.97554 3.27005L10.9335 2.50405L9.97554 0.446045ZM12.4195 1.88204L12.7055 3.08205H13.9055L14.4795 0.882045L12.4195 1.88204ZM6.04954 3.08004H7.24954L7.29754 2.93605L7.53754 1.88204L5.47754 0.882045L6.04954 3.08004Z" fill="#D0A85C"/>
</g>
<defs>
<clipPath id="clip0_6009_1280">
<rect width="20" height="20" fill="white"/>
</clipPath>
</defs>
</svg>
