<svg width="126" height="40" viewBox="0 0 126 40" fill="none" xmlns="http://www.w3.org/2000/svg">
<g clip-path="url(#clip0_6013_1396)">
<path d="M21.1551 2.40038L0 12.1972L5.2711 32.2578L9.28279 31.7652L8.17973 19.1518L9.49697 18.5649L11.7716 31.4589L18.6277 30.6171L17.409 16.6951L18.7134 16.1147L21.215 30.3001L28.1504 29.4477L26.816 14.187L28.1354 13.6001L30.8705 29.1136L37.7266 28.2718V6.55129L21.1551 2.40038ZM21.652 32.8254L22.0011 34.8002L37.7266 37.4218V30.8506L21.6606 32.8254H21.652ZM52.5996 28.7088V31.4139H55.9345C55.9348 31.9626 55.7932 32.5019 55.5232 32.9796C55.241 33.4555 54.8235 33.8365 54.3238 34.0741C53.7263 34.3471 53.0741 34.479 52.4176 34.4596C51.6594 34.4806 50.9127 34.2715 50.2757 33.8599C49.6535 33.428 49.1735 32.8213 48.8963 32.1164C48.5508 31.2351 48.3855 30.2934 48.4101 29.347C48.3849 28.408 48.554 27.4738 48.9071 26.6033C49.1957 25.9095 49.6793 25.3143 50.2993 24.8898C50.9244 24.484 51.6575 24.2764 52.4026 24.2944C52.7905 24.291 53.1769 24.3422 53.5506 24.4465C53.883 24.5417 54.1967 24.6931 54.478 24.8941C54.7452 25.0866 54.9758 25.3252 55.1591 25.5988C55.3508 25.8914 55.4953 26.2123 55.5875 26.5498H59.2865C59.1897 25.7735 58.9376 25.0247 58.5454 24.3479C58.1551 23.6802 57.6429 23.0917 57.0354 22.613C56.3988 22.1154 55.6806 21.732 54.9128 21.48C54.0789 21.2086 53.2066 21.0741 52.3297 21.0816C51.3037 21.0731 50.2857 21.2621 49.3311 21.6385C48.414 22.0037 47.5847 22.5592 46.898 23.2684C46.1794 24.0179 45.6244 24.9084 45.2681 25.8836C44.8611 27.0122 44.6629 28.2054 44.6833 29.4049C44.6833 31.1098 45.0075 32.5798 45.6557 33.8149C46.2687 35.0046 47.2126 35.9917 48.3737 36.6572C49.5502 37.2849 50.8575 37.6281 52.1906 37.6593C53.5237 37.6906 54.8455 37.409 56.0501 36.8371C57.0924 36.3083 57.9602 35.4903 58.5497 34.481C59.1565 33.4544 59.4593 32.2264 59.4578 30.7971V28.7066L52.5996 28.7088ZM98.6559 37.4497V21.2915H109.723V24.2815H102.308V27.8713H108.303V30.8613H102.308V34.4596H109.74V37.4497H98.6559ZM120.466 26.0336C120.45 25.7558 120.374 25.4849 120.243 25.2394C120.112 24.9939 119.93 24.7797 119.708 24.6114C119.26 24.2708 118.637 24.1016 117.847 24.1016C117.39 24.0864 116.935 24.1591 116.506 24.3158C116.182 24.4339 115.898 24.6401 115.686 24.9112C115.502 25.159 115.402 25.4593 115.401 25.768C115.391 26.014 115.449 26.258 115.57 26.4727C115.697 26.6861 115.873 26.866 116.084 26.9974C116.331 27.1577 116.598 27.2865 116.877 27.3808C117.202 27.4942 117.534 27.5879 117.87 27.6614L119.29 27.9912C119.986 28.1393 120.665 28.3604 121.315 28.6509C121.878 28.9021 122.398 29.2404 122.857 29.6533C123.276 30.0355 123.611 30.5018 123.838 31.022C124.075 31.5832 124.193 32.1881 124.182 32.7975C124.206 33.7201 123.941 34.627 123.424 35.3913C122.878 36.1504 122.122 36.7345 121.25 37.0727C120.163 37.4925 119.003 37.6934 117.838 37.6638C116.656 37.6891 115.48 37.4847 114.375 37.062C113.445 36.7006 112.645 36.0678 112.079 35.2457C111.532 34.4375 111.246 33.4294 111.222 32.2214H114.741C114.746 32.6879 114.893 33.1419 115.163 33.5224C115.433 33.9029 115.812 34.1918 116.251 34.3504C116.746 34.5385 117.272 34.6301 117.802 34.6203C118.288 34.6309 118.771 34.5517 119.228 34.3868C119.589 34.2594 119.91 34.0375 120.156 33.7442C120.373 33.4714 120.491 33.1333 120.492 32.7847C120.495 32.4721 120.388 32.1685 120.188 31.928C119.943 31.6611 119.64 31.455 119.301 31.3261C118.823 31.1313 118.33 30.978 117.825 30.8677L116.097 30.4501C114.719 30.1217 113.632 29.6033 112.835 28.8951C112.038 28.1869 111.643 27.2273 111.648 26.0164C111.623 25.0873 111.903 24.1755 112.445 23.4205C113.013 22.6527 113.777 22.0526 114.658 21.6835C115.673 21.2529 116.768 21.0405 117.87 21.0602C118.968 21.0356 120.058 21.2482 121.066 21.6835C121.922 22.0559 122.657 22.6597 123.189 23.4269C123.7 24.1956 123.968 25.0999 123.96 26.0229L120.466 26.0336ZM96.0514 37.4497H92.4381V25.1661L92.0675 25.1618L88.4178 37.4497H84.8066L81.2555 25.1618L80.795 25.1661V37.4497H77.1817V21.2915H83.3223L86.4237 32.1207H86.7986L89.9 21.2915H96.0514V37.4497ZM71.4929 37.4497H75.4061L69.9807 21.2937H65.0224L59.5885 37.4497H63.5081L64.564 33.907H70.437L71.4929 37.4497ZM65.4036 31.0884L67.1642 25.1661H67.8282L69.5974 31.0884H65.4036ZM125.071 23.0007C124.904 23.0002 124.74 22.9503 124.6 22.8574C124.46 22.7645 124.351 22.6326 124.285 22.4781C124.241 22.373 124.218 22.2601 124.218 22.1461C124.218 22.0321 124.241 21.9192 124.285 21.8141C124.328 21.7126 124.39 21.6202 124.467 21.5421C124.546 21.4647 124.638 21.4023 124.739 21.3579C124.952 21.2721 125.19 21.2721 125.403 21.3579C125.505 21.4018 125.597 21.4643 125.675 21.5421C125.753 21.6203 125.816 21.7126 125.86 21.8141C125.904 21.9192 125.926 22.0321 125.926 22.1461C125.926 22.2601 125.904 22.373 125.86 22.4781C125.816 22.5796 125.753 22.6719 125.675 22.7501C125.597 22.8285 125.505 22.891 125.403 22.9343C125.298 22.9783 125.185 23.0009 125.071 23.0007ZM125.071 22.7673C125.182 22.7685 125.291 22.7397 125.386 22.6837C125.478 22.6322 125.555 22.5586 125.611 22.4695C125.666 22.3744 125.695 22.2666 125.695 22.1568C125.695 22.0471 125.666 21.9393 125.611 21.8441C125.554 21.7551 125.476 21.6816 125.384 21.6299C125.289 21.5752 125.181 21.5465 125.071 21.5465C124.962 21.5465 124.854 21.5752 124.759 21.6299C124.671 21.6832 124.598 21.7567 124.544 21.8441C124.488 21.9387 124.459 22.0468 124.459 22.1568C124.459 22.2669 124.488 22.3749 124.544 22.4695C124.598 22.557 124.671 22.6304 124.759 22.6837C124.853 22.7394 124.961 22.7683 125.071 22.7673ZM124.759 22.5209V21.7349H125.14C125.191 21.7338 125.242 21.7448 125.288 21.767C125.329 21.7868 125.364 21.818 125.388 21.857C125.413 21.8998 125.426 21.9487 125.425 21.9983C125.426 22.0483 125.413 22.0975 125.386 22.1397C125.362 22.1793 125.326 22.2101 125.283 22.2275C125.236 22.249 125.185 22.2592 125.133 22.2575H124.876V22.1033H125.091C125.119 22.1047 125.146 22.0955 125.168 22.0776C125.178 22.0671 125.186 22.0547 125.191 22.041C125.196 22.0274 125.198 22.0129 125.198 21.9983C125.199 21.9837 125.197 21.9691 125.191 21.9554C125.186 21.9417 125.178 21.9293 125.168 21.9191C125.146 21.9011 125.119 21.8919 125.091 21.8934H124.973V22.5209H124.759ZM125.271 22.1611L125.446 22.5209H125.208L125.048 22.1611H125.271ZM60.4881 2.55031H64.1399V18.7084H60.4881V2.55031ZM81.4825 10.6294C81.4825 12.4028 81.1462 13.9021 80.4737 15.1273C79.8489 16.31 78.8982 17.289 77.7342 17.9481C76.5375 18.5865 75.2021 18.9205 73.8457 18.9205C72.4894 18.9205 71.1539 18.5865 69.9572 17.9481C68.7929 17.2865 67.8423 16.3054 67.2178 15.1208C66.5452 13.8843 66.2089 12.385 66.2089 10.6229C66.2089 8.86092 66.5452 7.35805 67.2178 6.11435C67.8412 4.93511 68.7887 3.95862 69.9486 3.29995C71.1458 2.66297 72.4811 2.32983 73.8371 2.32983C75.1932 2.32983 76.5285 2.66297 77.7257 3.29995C78.8897 3.95906 79.8404 4.93799 80.4651 6.12077C81.1377 7.35448 81.4739 8.85735 81.4739 10.6294M77.7578 10.6294C77.7856 9.6787 77.6232 8.73205 77.2802 7.84497C77.0088 7.15164 76.5367 6.55504 75.9244 6.13148C75.2979 5.74635 74.5769 5.54245 73.8414 5.54245C73.106 5.54245 72.385 5.74635 71.7585 6.13148C71.1454 6.55536 70.6721 7.15173 70.3984 7.84497C69.7542 9.64535 69.7542 11.6134 70.3984 13.4138C70.6712 14.1075 71.1447 14.7042 71.7585 15.1273C72.385 15.5124 73.106 15.7163 73.8414 15.7163C74.5769 15.7163 75.2979 15.5124 75.9244 15.1273C76.5374 14.7045 77.0097 14.1076 77.2802 13.4138C77.6229 12.5266 77.7853 11.58 77.7578 10.6294ZM52.8138 13.0754L54.6901 18.7084H58.6975L56.6113 12.6406H53.7776L53.6084 12.118C54.1482 12.013 55.0713 11.8502 55.8895 11.2933C56.4626 10.9035 56.9325 10.3804 57.2589 9.76893C57.5854 9.15748 57.7585 8.47596 57.7636 7.78285C57.7882 6.82548 57.5464 5.88009 57.0654 5.05199C56.5952 4.25012 55.8975 3.60602 55.0606 3.20143C54.0793 2.74703 53.0058 2.52705 51.9249 2.55887H45.4073V18.7084H49.0613V13.0754H52.8138ZM52.7453 9.73194C52.2479 9.91483 51.72 10.0006 51.1903 9.98468H49.0613V5.51677H51.1838C51.7139 5.50151 52.2418 5.59179 52.7367 5.78236C53.128 5.93802 53.4586 6.21599 53.6791 6.57485C53.9039 6.93661 54.0158 7.3572 54.0004 7.78285C54.0178 8.20209 53.9073 8.6167 53.6834 8.97158C53.4618 9.32042 53.1324 9.5874 52.7453 9.73194ZM81.8273 2.55031V5.5489H88.103L88.2743 6.07365C87.7431 6.17646 86.8457 6.33496 86.0404 6.86614V18.7127H89.6537V5.54033H93.856V2.54174L81.8273 2.55031Z" fill="white"/>
</g>
<defs>
<clipPath id="clip0_6013_1396">
<rect width="125.926" height="40" fill="white"/>
</clipPath>
</defs>
</svg>
